<svg height="512" viewBox="0 0 512 512" width="512" xmlns="http://www.w3.org/2000/svg"><path d="m292.300175 170.666667c32.148923 0 58.717859 8.661654 79.706806 25.984962 10.443281 8.661654 18.582897 19.301587 24.418848 31.9198 5.938336 13.045948 8.907504 27.428571 8.907504 43.147869 0 24.915623-6.910994 44.805347-20.732984 59.669173-12.388598 13.259816-26.364165 19.889724-41.926702 19.889724-16.586387 0-25.698662-7.538847-27.336823-22.616541-10.238511 15.077694-24.060501 22.616541-41.465969 22.616541-14.02676 0-25.135544-4.063492-33.326352-12.190476-8.907505-8.768588-13.361257-20.798663-13.361257-36.090225 0-10.15873 2.022106-20.130326 6.066318-29.914787 4.044211-9.784461 9.649796-18.258981 16.816754-25.423559 13.617219-13.580618 31.125072-20.370927 52.52356-20.370927 16.176847 0 31.27865 2.619883 45.30541 7.859649l-10.289703 66.726817c-1.023851 6.522974-1.535777 11.281537-1.535777 14.275689 0 7.378446 3.122746 11.067669 9.368237 11.067669 8.190809 0 15.511344-4.972431 21.961606-14.917293 7.883653-12.083542 11.82548-26.412699 11.82548-42.987469 0-22.776942-7.678883-40.527986-23.036649-53.253133-16.995928-14.008354-38.08726-21.012531-63.273997-21.012531-19.45317 0-37.165794 4.81203-53.137871 14.43609-15.050611 9.08939-26.364165 21.386801-33.940663 36.892231-6.040721 12.618212-9.061082 26.626566-9.061082 42.025063 0 29.192982 10.136126 52.344193 30.408377 69.453634 17.815009 15.077694 40.442118 22.616541 67.881326 22.616541 15.664922 0 32.251309-2.994152 49.759163-8.982456l4.453752 24.701754c-18.531705 6.095238-37.421757 9.142857-56.670157 9.142857-35.425247 0-64.246655-10.319131-86.464224-30.957393-23.650959-21.814536-35.476439-50.686717-35.476439-86.616542 0-33.898078 11.211169-61.754385 33.633508-83.568922 23.139034-22.349206 52.472367-33.523809 88-33.523809zm10.750436 78.917293c-5.835951 0-11.62071 1.523809-17.354276 4.571428-5.733566 3.04762-10.648051 7.244779-14.743455 12.591479-8.395579 10.800334-12.593369 22.883877-12.593369 36.250627 0 7.48538 1.842932 13.393483 5.528796 17.724311 3.685864 4.330827 8.702734 6.49624 15.050611 6.49624 9.21466 0 16.84235-3.956558 22.883072-11.869674 3.173938-4.063492 5.682373-11.923141 7.525305-23.578947l6.450262-39.93985c-5.221641-1.497076-9.470623-2.245614-12.746946-2.245614zm80.949389-249.58396.00272 187.94015c-12.277132-11.782367-26.718199-21.327102-42.667571-27.978575l-.001816-95.961575-116.162965 100.350908c-13.367363 6.805868-25.484046 15.715657-35.913823 26.293144l-146.5898783-126.644052v192l110.3774813-.001136c-2.426695 10.272759-3.710815 20.986986-3.710815 32.001136 0 3.589405.13638 7.146957.404239 10.667757l-149.737572-.00109v-298.666667zm-80 42.6666667h-224l112 96.0000003z" transform="translate(64 64)"/></svg>